<svg xmlns="http://www.w3.org/2000/svg" width="1024" height="1024" viewBox="0 0 1024 1024"><path d="M512.00,272.00 A240,240 0 0 1 719.85,632.00 L641.90,587.00 A150,150 0 0 0 512.00,362.00 Z" fill="#3987e5"/><path d="M713.28,642.71 A240,240 0 0 1 374.34,708.60 L425.96,634.87 A150,150 0 0 0 637.80,593.70 Z" fill="#eb6834"/><path d="M364.24,701.12 A240,240 0 0 1 304.15,392.00 L382.10,437.00 A150,150 0 0 0 419.65,630.20 Z" fill="#1baf7a"/><path d="M310.72,381.29 A240,240 0 0 1 499.44,272.33 L504.15,362.21 A150,150 0 0 0 386.20,430.30 Z" fill="#eda100"/><path d="M512.00,190.00 A322,322 0 0 1 814.58,401.87 L748.80,425.81 A252,252 0 0 0 512.00,260.00 Z" fill="#6da7ec"/><path d="M819.93,417.86 A322,322 0 0 1 796.31,663.17 L734.50,630.31 A252,252 0 0 0 752.99,438.32 Z" fill="#86b6ef"/><path d="M782.05,687.37 A322,322 0 0 1 512.00,834.00 L512.00,764.00 A252,252 0 0 0 723.34,649.25 Z" fill="#f29a74"/><path d="M313.76,765.74 A322,322 0 0 1 193.13,556.81 L262.45,547.07 A252,252 0 0 0 356.85,710.58 Z" fill="#5fcaa2"/><path d="M191.23,540.06 A322,322 0 0 1 225.10,365.82 L287.47,397.59 A252,252 0 0 0 260.96,533.96 Z" fill="#6fd3ae"/><path d="M241.95,336.63 A322,322 0 0 1 401.87,209.42 L425.81,275.20 A252,252 0 0 0 300.66,374.75 Z" fill="#f3c25a"/></svg>
